<svg xmlns="http://www.w3.org/2000/svg" version="1.1" xmlns:xlink="http://www.w3.org/1999/xlink" width="512" height="512" x="0" y="0" viewBox="0 0 64 64" style="enable-background:new 0 0 512 512" xml:space="preserve" class=""><g><path d="M7.433 47.1a1 1 0 0 0-.749-.053l-6 2 .632 1.9 5.513-1.838a16 16 0 0 0 18.332.006l6.624 2.338a11.7 11.7 0 0 0 5.394 6.247l1.873 5.617 1.9-.632-2-6a1 1 0 0 0-.5-.579 9.73 9.73 0 0 1-4.913-5.664l-.586-1.757a.987.987 0 0 0-.367-.5l-2.896-2.064a4.649 4.649 0 0 0 1.574-1.933l2.483 2.069A3.2 3.2 0 0 0 39 43.8V30a1 1 0 0 1 2 0v9a1 1 0 0 0 1.948.316l3.6-10.808a.744.744 0 0 1 1.452.236 11.719 11.719 0 0 1-.227 2.292L46.02 39.8a1 1 0 0 0 1.769.81l6.4-8.223a1.014 1.014 0 0 1 1.811.628 2.246 2.246 0 0 1-.379 1.25l-5.453 8.18a1 1 0 0 0 1.148 1.5l8.737-2.912a.738.738 0 0 1 .947.684 1.154 1.154 0 0 1-.6 1.014l-9.877 5.387A1 1 0 0 0 50 49v3a5.006 5.006 0 0 1-5 5v2a6.95 6.95 0 0 0 3.666-1.048l3.486 5.578 1.7-1.06-3.635-5.815A6.965 6.965 0 0 0 52 52v-2.406l9.356-5.1A3.156 3.156 0 0 0 63 41.721 2.725 2.725 0 0 0 60.279 39a2.69 2.69 0 0 0-.86.14l-5.971 1.99 3.837-5.755a4.241 4.241 0 0 0 .715-2.36 3.014 3.014 0 0 0-5.394-1.851l-3.794 4.878.922-4.614A13.723 13.723 0 0 0 50 28.744a2.744 2.744 0 0 0-5.346-.869L43 32.837V30a3 3 0 0 0-6 0v13.8a1.2 1.2 0 0 1-1.973.924l-3.216-2.68.732-3.659a23.5 23.5 0 0 0-.243-10.316l-.3-1.193a37.472 37.472 0 0 0-.507-6l-.433-2.6.351-.439A16.435 16.435 0 0 0 35 7.605a7.722 7.722 0 0 0-3.445-6.437 1 1 0 0 0-1.5.516A4.461 4.461 0 0 1 26.7 4.64l-.471.094a14.051 14.051 0 0 1-8.954-1.213 4.935 4.935 0 0 0-6.994 3.216L10.219 7a9.433 9.433 0 0 0-8.59 12.82L4.6 27.555A3.464 3.464 0 0 0 3 30.472a7.505 7.505 0 0 0 .789 3.342l1.869 3.739A2.606 2.606 0 0 0 8 39a2.98 2.98 0 0 0 1.5-.4l.367 1.838A6.814 6.814 0 0 1 7.433 47.1Zm22.3 1.507-4.4-1.554a.991.991 0 0 0-.765.046 7.252 7.252 0 0 1-.314-.267 22.447 22.447 0 0 0 2.557.168H27c.145 0 .285-.024.428-.038ZM3 16.434A7.443 7.443 0 0 1 10.434 9H11a1 1 0 0 0 .971-.758l.254-1.02a2.934 2.934 0 0 1 4.159-1.912A16.073 16.073 0 0 0 26.625 6.7l.475-.1a6.462 6.462 0 0 0 4.266-3.01A5.722 5.722 0 0 1 33 7.605a14.431 14.431 0 0 1-3.151 8.983l-.33.412h-3.677a34.953 34.953 0 0 1-11.069-1.8A3.97 3.97 0 0 0 9.6 18.319a44.226 44.226 0 0 0-.6 7.246v2.524a3.445 3.445 0 0 0-2.464-1.082L3.5 19.1a7.391 7.391 0 0 1-.5-2.666Zm9 25.342a8.818 8.818 0 0 0-.172-1.733L10.98 35.8A1 1 0 0 0 9 36a1 1 0 0 1-1 1 .616.616 0 0 1-.553-.342L5.578 32.92A5.51 5.51 0 0 1 5 30.472a1.472 1.472 0 0 1 2.789-.658l1.316 2.633A1 1 0 0 0 11 32v-6.435a42.215 42.215 0 0 1 .572-6.917 1.974 1.974 0 0 1 2.57-1.547 36.93 36.93 0 0 0 11.7 1.9h3.311l.368 2.206A35.372 35.372 0 0 1 30 27a1 1 0 0 0 .03.243l.328 1.311a21.506 21.506 0 0 1 .224 9.435l-.975 4.873A2.665 2.665 0 0 1 27 45h-.189a20.606 20.606 0 0 1-13.17-4.768l-1.282 1.536a22.6 22.6 0 0 0 8.9 4.527 8.842 8.842 0 0 0 1.549 1.923 13.911 13.911 0 0 1-13.622 0A8.8 8.8 0 0 0 12 41.776Z" fill="#000000" opacity="1" data-original="#000000" class=""></path><path d="m47.105 48.447 1.79-.894a10.079 10.079 0 0 0-7.084-5.41l-.611-.123-.4 1.96.614.124a8.088 8.088 0 0 1 5.691 4.343ZM42.949 56.315a12.44 12.44 0 0 1 2.992-4.843l.766-.764-1.414-1.416-.766.766a14.234 14.234 0 0 0-1.567 1.9 10.346 10.346 0 0 0-3.405-3.792l-1.11 1.664a8.33 8.33 0 0 1 3.255 4.248 14.134 14.134 0 0 0-.65 1.607Z" fill="#000000" opacity="1" data-original="#000000" class=""></path></g></svg>